<svg xmlns="http://www.w3.org/2000/svg" viewBox="0 0 512 512" role="img" aria-labelledby="title desc">
  <title id="title">New Universe logo</title>
  <desc id="desc">Cosmic Atlas galaxy mark: a glowing galactic core with two spiral arms and a green satellite body.</desc>
  <defs>
    <radialGradient id="outer-bg" cx="48%" cy="42%" r="78%">
      <stop offset="0%" stop-color="#142844"/>
      <stop offset="58%" stop-color="#070D1E"/>
      <stop offset="100%" stop-color="#020510"/>
    </radialGradient>
    <linearGradient id="tile" x1="110" y1="96" x2="402" y2="420">
      <stop offset="0%" stop-color="#2F7380"/>
      <stop offset="48%" stop-color="#142D43"/>
      <stop offset="100%" stop-color="#101827"/>
    </linearGradient>
    <radialGradient id="disc" cx="48%" cy="50%" r="62%">
      <stop offset="0%" stop-color="#2C4B82"/>
      <stop offset="54%" stop-color="#121E44"/>
      <stop offset="100%" stop-color="#060A1E"/>
    </radialGradient>
    <linearGradient id="galaxy-body" x1="128" y1="314" x2="392" y2="202">
      <stop offset="0%" stop-color="#75D7FA" stop-opacity="0.82"/>
      <stop offset="37%" stop-color="#7CCDF5" stop-opacity="0.54"/>
      <stop offset="64%" stop-color="#5FC8F0" stop-opacity="0.48"/>
      <stop offset="100%" stop-color="#4CBFE6" stop-opacity="0.72"/>
    </linearGradient>
    <radialGradient id="core" cx="50%" cy="50%" r="53%">
      <stop offset="0%" stop-color="#FFFFFF"/>
      <stop offset="22%" stop-color="#FFFDF0"/>
      <stop offset="46%" stop-color="#FFD57D" stop-opacity="0.92"/>
      <stop offset="72%" stop-color="#F4A34E" stop-opacity="0.58"/>
      <stop offset="100%" stop-color="#F4A34E" stop-opacity="0"/>
    </radialGradient>
    <radialGradient id="satellite" cx="42%" cy="38%" r="66%">
      <stop offset="0%" stop-color="#FFFFFF"/>
      <stop offset="28%" stop-color="#B7FFD2"/>
      <stop offset="62%" stop-color="#52F194"/>
      <stop offset="100%" stop-color="#159B65"/>
    </radialGradient>
    <filter id="cyan-glow" x="-50%" y="-50%" width="200%" height="200%">
      <feGaussianBlur stdDeviation="5" result="blur"/>
      <feColorMatrix in="blur" values="0 0 0 0 0.36 0 0 0 0 0.84 0 0 0 0 1 0 0 0 0.58 0" result="glow"/>
      <feMerge>
        <feMergeNode in="glow"/>
        <feMergeNode in="SourceGraphic"/>
      </feMerge>
    </filter>
    <filter id="warm-glow" x="-70%" y="-70%" width="240%" height="240%">
      <feGaussianBlur stdDeviation="18" result="blur"/>
      <feColorMatrix in="blur" values="0 0 0 0 1 0 0 0 0 0.62 0 0 0 0 0.18 0 0 0 0.95 0" result="glow"/>
      <feMerge>
        <feMergeNode in="glow"/>
        <feMergeNode in="SourceGraphic"/>
      </feMerge>
    </filter>
    <filter id="green-glow" x="-80%" y="-80%" width="260%" height="260%">
      <feGaussianBlur stdDeviation="7" result="blur"/>
      <feColorMatrix in="blur" values="0 0 0 0 0.32 0 0 0 0 1 0 0 0 0 0.58 0 0 0 0.72 0" result="glow"/>
      <feMerge>
        <feMergeNode in="glow"/>
        <feMergeNode in="SourceGraphic"/>
      </feMerge>
    </filter>
    <clipPath id="disc-clip">
      <circle cx="256" cy="250" r="172"/>
    </clipPath>
  </defs>

  <rect width="512" height="512" fill="#020510"/>
  <rect x="96" y="88" width="320" height="320" rx="42" fill="url(#tile)"/>
  <circle cx="256" cy="250" r="178" fill="#020510"/>
  <circle cx="256" cy="250" r="172" fill="url(#disc)"/>
  <circle cx="256" cy="250" r="168" fill="none" stroke="#28426D" stroke-width="1.4" opacity="0.74"/>
  <circle cx="256" cy="250" r="178" fill="none" stroke="#62DED1" stroke-width="3.2" opacity="0.84"/>
  <circle cx="256" cy="250" r="183" fill="none" stroke="#020510" stroke-width="3.8" opacity="0.92"/>
  <circle cx="256" cy="250" r="187" fill="none" stroke="#62DED1" stroke-width="1.3" opacity="0.7"/>

  <g clip-path="url(#disc-clip)">
    <ellipse cx="256" cy="250" rx="150" ry="58" fill="url(#galaxy-body)" opacity="0.9" transform="rotate(-15 256 250)" filter="url(#cyan-glow)"/>
    <ellipse cx="256" cy="250" rx="122" ry="40" fill="#2B75A8" opacity="0.26" transform="rotate(-15 256 250)"/>
    <path
      d="M137 296 C161 221 214 214 258 241 C297 267 336 257 374 198 C382 200 391 204 398 210 C386 267 333 291 278 261 C231 236 184 237 145 311 C142 307 139 302 137 296Z"
      fill="none"
      stroke="#E5F8FF"
      stroke-width="8"
      stroke-linecap="round"
      stroke-linejoin="round"
      filter="url(#cyan-glow)"
    />
    <path
      d="M156 291 C194 306 228 291 255 258 C286 222 326 202 379 220"
      fill="none"
      stroke="#49D1F4"
      stroke-width="3.2"
      stroke-linecap="round"
      opacity="0.9"
    />
    <path
      d="M171 271 C199 235 230 236 258 249 C291 265 326 252 355 222"
      fill="none"
      stroke="#FBD9A4"
      stroke-width="2.2"
      stroke-linecap="round"
      opacity="0.62"
    />
    <path
      d="M131 312 C171 334 216 316 253 264 C290 213 332 183 392 193"
      fill="none"
      stroke="#9BEAFF"
      stroke-width="2.6"
      stroke-linecap="round"
      opacity="0.65"
    />
  </g>

  <circle cx="256" cy="250" r="34" fill="url(#core)" filter="url(#warm-glow)"/>
  <circle cx="256" cy="250" r="13" fill="#FFFFFF"/>
  <g stroke="#FFE8AE" stroke-width="2.2" stroke-linecap="round" opacity="0.9">
    <path d="M256 206v88"/>
    <path d="M212 250h88"/>
  </g>

  <g filter="url(#green-glow)">
    <circle cx="338" cy="285" r="22" fill="rgba(82,241,148,0.2)" stroke="#52F194" stroke-width="2.4" stroke-dasharray="2 5"/>
    <circle cx="338" cy="285" r="12" fill="url(#satellite)"/>
  </g>

  <g fill="#DDEBFF" opacity="0.72">
    <circle cx="158" cy="176" r="2.1"/>
    <circle cx="202" cy="152" r="1.4"/>
    <circle cx="252" cy="150" r="1.8"/>
    <circle cx="294" cy="162" r="1.1"/>
    <circle cx="364" cy="192" r="1.6"/>
    <circle cx="370" cy="248" r="1.8"/>
    <circle cx="365" cy="310" r="2"/>
    <circle cx="216" cy="337" r="1.1"/>
    <circle cx="166" cy="308" r="1.2"/>
    <circle cx="194" cy="257" r="2.4"/>
    <circle cx="329" cy="252" r="2.4"/>
    <circle cx="345" cy="252" r="1.8"/>
    <circle cx="181" cy="253" r="1.9" fill="#62DFFF"/>
    <circle cx="171" cy="262" r="1.9" fill="#62DFFF"/>
  </g>

  <g stroke="#E8EDF5" stroke-width="1.5" stroke-linecap="round" opacity="0.86">
    <path d="M354 152v18"/>
    <path d="M345 161h18"/>
    <path d="M178 338v18"/>
    <path d="M169 347h18"/>
  </g>
</svg>
